<svg width="250" height="250" viewBox="0 0 250 250" fill="none" xmlns="http://www.w3.org/2000/svg">
<rect width="250" height="250" fill="#151C2F"/>
<path d="M124.5 228L90.5 183H158L124.5 228Z" fill="#C8B2F5"/>
<path d="M124.5 228L90.5 183H158L124.5 228Z" fill="#C8B2F5"/>
<path d="M124.5 228L90.5 183H158L124.5 228Z" stroke="#7979DD" stroke-width="3"/>
<path d="M124.5 21L154.5 68H94L124.5 21Z" fill="#EECBC0"/>
<path d="M124.5 21L154.5 68H94L124.5 21Z" fill="#EECBC0"/>
<path d="M124.5 21L154.5 68H94L124.5 21Z" stroke="#7979DD" stroke-width="3"/>
<path d="M165.678 88.5L182.264 114.5H65.7764L82.8105 88.5H165.678Z" fill="#B8FBF6" stroke="#7979DD" stroke-width="3"/>
<path d="M76.7354 162.5L56.5635 136.5L191.979 136.5L172.255 162.5L76.7354 162.5Z" fill="#87A9F0" stroke="#7979DD" stroke-width="3"/>
</svg>
